<svg width="864" height="432" title="D3-Celestial" version="1.1" encoding="UTF-8" xmlns="http://www.w3.org/2000/svg" xmlns:xlink="http://www.w3.org/1999/xlink" xmlns:sodipodi="http://sodipodi.sourceforge.net/DTD/sodipodi-0.dtd" xmlns:inkscape="http://www.inkscape.org/namespaces/inkscape" viewBox=" 0 0 864 432"><defs><style type="text/css">/*&lt;![CDATA[*/
 .background {fill:#000000; }  .milkyWay {}  .milkyWayBg {}  .gridLines {}  .constBoundaries {}  .planesequatorial {}  .planesecliptic {}  .planesgalactic {}  .planessupergalactic {}  .constLines {}  .mapBorder {fill:none; stroke:#000000; stroke-width:1.5; stroke-opacity:1; stroke-dasharray:none; }  .stars {}  .dsos {}  .planets {}  .gridvaluesLon {}  .gridvaluesLat {}  .constNames {}  .starDesignations {}  .starNames {}  .dsoNames {}  .planetNames {}  .horizon {}  .daylight {}  .constLines1 {fill:none; stroke:#cccccc; stroke-width:1.5; stroke-opacity:0.6; stroke-dasharray:none; }  .constLines2 {fill:none; stroke:#cccccc; stroke-width:1.5; stroke-opacity:0.6; stroke-dasharray:none; }  .constLines3 {fill:none; stroke:#cccccc; stroke-width:1.5; stroke-opacity:0.6; stroke-dasharray:none; }  .constNames1 {fill:#cccc99; fill-opacity:0.8; font:14px 'Lucida Sans Unicode', 'DejaVu Sans', Helvetica, Arial, sans-serif; text-anchor:middle; }  .constNames2 {fill:#cccc99; fill-opacity:0.8; font:12px 'Lucida Sans Unicode', 'DejaVu Sans', Helvetica, Arial, sans-serif; text-anchor:middle; }  .constNames3 {fill:#cccc99; fill-opacity:0.8; font:11px 'Lucida Sans Unicode', 'DejaVu Sans', Helvetica, Arial, sans-serif; text-anchor:middle; } 
/*]]&gt;*/</style></defs><g id="background" inkscape:groupmode="layer" inkscape:label="background"><path class="background" d="M869.368602241954,216.1213451546514L869.3600216769764,216.12118788986797L869.347401095244,216.11962709649657L869.3350127980482,216.11675564333257L869.3229925143281,216.11260499068393L869.3114719409416,216.10722061405787L869.3005772997547,216.10066150591248L869.2904279547251,216.09299952931423L869.2811351041248,216.08431863057962L869.2728005622375,216.0747139195332L869.265515643872,216.06429062745602L869.2593601639157,216.05316295414423L869.2544015628855,216.0414528167093L869.2506941680568,216.02928851382967L869.2482785982603,216.01680332008718L869.2471813188704,216.004134025789L869.2474143518557,215.99141943827325L869.2489751440702,215.97879886111681L869.2518465952232,215.96641056790654L869.255997245227,215.95439028729348L869.2613816188683,215.94286971593078L869.267940724025,215.93197507558224L869.2756026979781,215.92182573021316L869.2842835947331,215.91253287821314L869.2938883047309,215.90419833407947L869.304311596873,215.8969134129099L869.315439271443,215.8907579299266L869.327149411298,215.88579932599387L869.3393137176201,215.88209192871204L869.351798915591,215.8796763571826L869.3644682145928,215.87857907696974L869.368602241954,215.87865484534854L869.368602241954,161.23791585376716L869.368602241954,106.59717686218579L869.368602241954,51.95643787060439L869.368602241954,-2.684301120977011L432,-2.684301120977011L-5.368602241954022,-2.684301120977011L-5.368602241954022,51.95643787060439L-5.368602241954022,106.59717686218579L-5.368602241954022,161.23791585376716L-5.368602241954022,215.87865484534854L-5.36002167697643,215.87881211013195L-5.347401095244038,215.88037290350337L-5.33501279804824,215.88324435666735L-5.322992514328348,215.88739500931592L-5.311471940941544,215.8927793859421L-5.300577299754821,215.89933849408743L-5.290427954725089,215.90700047068574L-5.290427954725089,215.90700047068574L-5.281135104124928,215.91568136942033L-5.272800562237705,215.92528608046663L-5.26551564387222,215.9357093725438L-5.259360163915744,215.9468370458558L-5.2544015628856755,215.95854718329062L-5.250694168056896,215.97071148617027L-5.248278598260299,215.98319667991277L-5.247181318870332,215.99586597421097L-5.247414351855923,216.0085805617267L-5.248975144070357,216.02120113888304L-5.251846595223128,216.03358943209352L-5.2559972452271495,216.04560971270647L-5.261381618868256,216.05713028406925L-5.267940724025152,216.06802492441767L-5.275602697978172,216.07817426978676L-5.284283594733097,216.0874671217868L-5.293888304731013,216.0958016659205L-5.304311596873049,216.10308658709002L-5.31543927144304,216.10924207007335L-5.327149411298308,216.11420067400596L-5.3393137176202,216.11790807128787L-5.351798915591019,216.12032364281734L-5.364468214592762,216.1214209230302L-5.368602241954022,216.1213451546514L-5.368602241954022,270.76208414623284L-5.368602241954022,325.4028231378142L-5.368602241954022,380.0435621293956L-5.368602241954022,434.684301120977L432,434.684301120977L869.368602241954,434.684301120977L869.368602241954,380.0435621293956L869.368602241954,325.4028231378142L869.368602241954,270.76208414623284Z"></path></g><g id="milkyWay" inkscape:groupmode="layer" inkscape:label="milkyWay"></g><g id="milkyWayBg" inkscape:groupmode="layer" inkscape:label="milkyWayBg"></g><g id="gridLines" inkscape:groupmode="layer" inkscape:label="gridLines"></g><g id="constBoundaries" inkscape:groupmode="layer" inkscape:label="constBoundaries"></g><g id="planesequatorial" inkscape:groupmode="layer" inkscape:label="planesequatorial"></g><g id="planesecliptic" inkscape:groupmode="layer" inkscape:label="planesecliptic"></g><g id="planesgalactic" inkscape:groupmode="layer" inkscape:label="planesgalactic"></g><g id="planessupergalactic" inkscape:groupmode="layer" inkscape:label="planessupergalactic"></g><g id="constLines" inkscape:groupmode="layer" inkscape:label="constLines"><path class="constLines1" d="M550.0581890801895,118.92840517732382L546.866456742338,88.73111195352628L542.388421516174,69.6039365311706L519.3544839700985,56.371150887681864M584.1254190403905,65.88663039150117L574.0004405906509,62.35169165940695L547.1351343265179,66.60443402861353L542.388421516174,69.6039365311706L531.6084442879632,74.03416640426511L498.2984613815164,77.54691203516776L468.55625347444015,84.3563196200075L440.6417516902,82.02583906415265M468.55625347444015,84.3563196200075L469.5900326842338,87.06233001904357L466.4853598077418,92.00912174717469M546.866456742338,88.73111195352628L531.5045089928083,89.19488844602783L521.0592384800938,91.97467901389L517.2673596298145,109.03472003717258L525.4994352630239,119.43520151076297M469.5900326842338,87.06233001904357L472.0681021951977,92.45950267815404"></path><path class="constLines3" d="M800.4043012737513,342.71973758372957L812.3942125449048,356.960954734177L828.96358551294,370.55914340070444L850.3233449808861,366.9341616016152L869.368602241954,362.0934362705053M-5.368602241954022,362.0934362705053L-5.091449616120713,362.0097798857477"></path><path class="constLines3" d="M38.73034342109753,250.73689343975948L44.0983793163233,241.28796387135415L47.464512902881836,238.99100923458963L43.92290691019929,239.6752069559794"></path><path class="constLines2" d="M177.98606266064928,98.22293198115416L177.93269288876337,94.98908190422691L174.0009290238703,70.2285222953507L180.60738294206953,46.0193799564793L159.10606390119693,38.71885929250837L160.95522306365172,33.26196472737266L151.16790993964196,30.090160835429145L109.11955201008931,32.66677185772161L75.10484418966684,37.81504984418291L47.60531175303629,37.31755288619041L20.426363047424275,38.30058077999743L25.717763203461516,52.96819117668295L28.888347819638284,67.67901725480002M174.0009290238703,70.2285222953507L145.20181077170645,66.64423389496685L114.65949133611718,65.74811226990087M180.60738294206953,46.0193799564793L153.1299460417963,47.54256837618476L127.99549599073373,50.72513843499013M160.95522306365172,33.26196472737266L176.6261054452111,33.5372869930377M12.870871061266598,64.849755077693L15.768796597494088,51.55813094535142L20.426363047424275,38.30058077999743L5.540840124011254,45.928666501896515L-5.368602241954022,53.93290401456957M869.368602241954,53.93290401456957L862.3966585140046,60.69011860875116"></path><path class="constLines1" d="M254.05974799596748,125.26581662361296L248.5609077139468,122.72231557460502L240.66629971336909,120.39100514995886L215.90209055025562,113.17539743610692L224.2350684779399,123.66690524955374L233.19259483254524,139.17274417548407L264.1615351363406,149.30444315328006L248.5609077139468,122.72231557460502L233.19259483254524,139.17274417548407L213.43897115114237,153.80106411795649"></path><path class="constLines3" d="M99.20940337966198,229.55363561814266L88.56891831609016,228.8270735668084L93.00996025628393,241.27337362158536L100.59306306813374,238.5463497579082L107.55629742247152,238.16774096391634L114.69781013305999,225.45285825412995L101.27259814745679,229.38746508540987"></path><path class="constLines1" d="M604.1672439763254,127.09601996592221L609.1629614705305,102.13666166590646L616.0386745803112,93.73003614727342L621.4745605684261,92.30177450611735"></path><path class="constLines1" d="M561.8875069072848,219.82019766910008L562.122026251691,201.40969625222476L574.0771271297363,197.80373320311702L594.130033804149,194.40567068104463L603.7197487126977,210.67323463919448L580.2438212440134,223.93131180835152L561.8875069072848,219.82019766910008L539.7406045270513,214.88478337782027L562.122026251691,201.40969625222476L567.846444407947,195.43001729130208L574.5747211661062,195.98313161721543"></path><path class="constLines1" d="M320.4702781524869,327.0136339210545L320.0979615722016,322.15997695271085L314.47128652072206,310.70025794124206L337.84896854153527,289.4855979516439L356.0663387544339,278.8197994869938L352.58201910619454,264.26039755481526L333.0711322536795,266.25111595568956L325.8434268683427,287.30508712941565L314.47128652072206,310.70025794124206L291.6988873790974,302.4502193929735M356.0663387544339,278.8197994869938L377.2261006186078,272.73296540511353L389.0787377065791,264.260980063548L386.0679345159849,260.89284033008L377.2261006186078,272.73296540511353"></path><path class="constLines3" d="M785.2937138860262,208.5599155713644L777.0003930121804,211.0371246372597L765.627652183455,209.33902089429458L759.7384452501311,219.4010745280584"></path><path class="constLines2" d="M543.4735843609354,192.99198064119201L527.0062480328148,194.96035034766584L512.4370092524046,192.71153233296872L497.71257996840654,181.2650385493494L511.5416871640068,176.67391809768253L523.0680327697155,166.8527356349692M512.4370092524046,192.71153233296872L503.00522683249005,211.0663024855136L483.0898189029447,211.07913054928483"></path><path class="constLines2" d="M603.2003302027151,337.16267897274975L589.4073274093944,322.6342212850665L580.6514103904556,317.70159973998096L560.4664904634662,308.79746729471856M589.4073274093944,322.6342212850665L625.7985513878237,316.6001322859511"></path><path class="constLines2" d="M395.4185648206336,310.31391602777853L411.5386120800557,308.549545290552"></path><path class="constLines1" d="M713.2151817403206,258.1049502350753L709.5171181301966,271.0061850948768L728.7194843899678,280.9296765773048L735.9457129714624,283.40382625381613L739.7568962765686,279.4681368318006L742.3733991353233,277.59025438028215L744.0258663126319,257.22922424617036M745.1886788049412,290.8965443812664L735.9457129714624,283.40382625381613M709.5171181301966,271.0061850948768L710.2909108843396,277.4070141610283L706.3887371066107,281.81072940474644L696.8936536610023,275.88150580570095L710.2909108843396,277.4070141610283"></path><path class="constLines2" d="M645.1449138712414,297.6033137263587L638.6170876347502,288.75041494108336"></path><path class="constLines2" d="M178.09041464530745,117.56400581980026L170.38819748979614,117.87610622854247L159.03324822863493,116.95249545042758L132.02805812491493,118.27118768179001L125.3756750231504,118.23543646925445L118.96343215266921,96.58033035876527L123.52113999694876,77.55389822100142L126.8519046623826,81.38276370627884L137.6747734741772,89.56689439389758L145.19845246007714,97.7852135002832L162.80304042072896,107.19022433940103L178.09041464530745,117.56400581980026"></path><path class="constLines1" d="M778.194842379517,263.3197056135626L801.3397658296684,254.49012638216774L831.6752990009597,266.425633875646L863.8319984406512,276.0418780848268L869.368602241954,278.246112857086M-5.368602241954022,278.246112857086L2.0065513260457237,280.99980647297053L5.70710502759664,295.9748805410497L0.4209202910709564,301.73884619013535L-4.9545112872559685,301.3126484789756L-5.368602241954022,301.25165705508266M869.368602241954,301.25165705508266L847.721284641525,297.1895101998795L834.180555293222,284.9642521665066L813.6548012065637,286.45620751625324L802.3948436926796,297.41849961815126L829.251989312729,298.06279976357155L847.721284641525,297.1895101998795M5.70710502759664,295.9748805410497L12.64044193566599,301.54088078611153L13.253868096861538,302.7337561027699L14.48804078561102,306.74543102101677L12.724614213423934,309.94337308897923L6.658009323112196,309.7541311298884L0.4209202910709564,301.73884619013535"></path><path class="constLines1" d="M498.78698983799,149.0267200494606L498.0191221990374,137.38408543496854L488.58935903933826,133.52548424784172L488.8244012764327,122.15749399262047L473.9262899420203,124.48079914757315"></path><path class="constLines1" d="M17.8264335481864,320.9397906073605L44.00096040581093,327.23485437110025L54.73650452188639,325.6271011375702L63.43370026912834,325.96924236471057L78.04846108574714,303.8706473798701L97.25644180047681,309.20128568191876L107.59321150210309,318.2076191036456L109.66070933518358,319.352890321327L130.3336626675819,319.004098760439L121.56062966977134,300.7221452817244L126.40257675213121,290.8736035732521M109.66070933518358,319.352890321327L111.7463828672548,337.4864229676205M76.3631678158784,277.4194938399997L78.04846108574714,303.8706473798701L70.10111224415147,286.57134516117605M54.73650452188639,325.6271011375702L43.946678615164956,323.04631061076316L21.917264471863575,308.784190211936"></path><path class="constLines2" d="M405.64241847457043,150.87017685213482L406.7564858725089,145.73034284169307L416.4025726257311,141.02809285429055L417.90879253648,129.2533745979505L427.2209544549976,121.10340441361456L426.9029780131961,124.21798644544418L434.14076850067846,122.82104558838724L445.93639702336685,140.06126020398537L457.21466377828693,167.4049248427032L430.6367574500553,155.96094823963458L416.4025726257311,141.02809285429055M430.6367574500553,155.96094823963458L445.93639702336685,140.06126020398537"></path><path class="constLines1" d="M678.2039835255182,120.94799807268562L671.3994628705432,115.84767186838184L662.4429422180136,110.72335506208607L656.5994092366808,120.62912513353822L659.8185559985151,129.59525327342402L673.9087964853193,132.12240675901225L678.2039835255182,120.94799807268562L687.6859833824342,119.6978390100741L701.5446652091813,109.33494658579114L733.7249808496492,99.10076823434706L754.6511664617965,101.4857450801715L773.7390182584875,88.70511568209075L797.6213107608515,77.51631457891173L793.9990502415177,64.4231575509016L788.7878905620397,51.38571085902467L767.8836105180319,63.38481236878471L753.1783167227018,76.2860105374173L737.3675331167367,81.98926797125884L733.7249808496492,99.10076823434706"></path><path class="constLines3" d="M868.3636187492432,256.68360263854277L869.368602241954,256.9919570220086M-5.368602241954022,256.9919570220086L11.5514670836385,261.81203969001456L13.512844826116464,257.5523528155904L23.99893723719765,259.74830384007487L22.346567264969224,262.82431012896825L11.5514670836385,261.81203969001456"></path><path class="constLines3" d="M87.03213514648223,269.49441325846806L67.6492842927687,271.2233010182023L86.52445570376796,267.320882187988"></path><path class="constLines3" d="M752.6241399400358,257.9437417376812L758.3893371974382,242.34527775496073L754.4834338593794,236.52689386421827L758.2005661472724,232.5698608165057M758.3893371974382,242.34527775496073L775.8472565773086,246.29957079673915"></path><path class="constLines3" d="M340.13104303187293,344.41953324873407L354.2653791253044,335.50421082835766L366.3865089985543,325.9790240463048L396.9019238087146,338.797487229619"></path><path class="constLines3" d="M134.7210516012152,180.6896395364315L133.3555843101695,177.19927776878646L130.79560870603302,176.65784085737016L127.36727857731591,177.83418150275904L125.04358299536938,179.69920769018964L122.37941029273247,183.4566625626379L121.66544575477525,190.27601150630667L126.72240453898337,196.0870182900403"></path><path class="constLines2" d="M324.7286088041277,259.87704649536124L320.36546315467115,264.3629700481205L313.220871338019,262.94406898672406L310.7049721551988,259.1336111679352L308.95732176542015,255.74807923694473L309.59284913020224,251.01674897100452L316.1061401922706,246.9725736075252"></path><path class="constLines3" d="M97.33891738531963,384.46488816426523L108.91892930353174,387.8644131382888L145.73937409068316,393.64278134531025L165.69182499913506,387.7535961341729L146.38792247356042,382.5990955944342L130.62348316531222,376.6968606800782L108.91892930353174,387.8644131382888"></path><path class="constLines3" d="M170.4574864309027,423.1582272119757L128.45040850448032,425.3951617003889L69.31731175806237,426.37694557552845L33.451986716887575,422.1081509416865L16.291171398060726,417.4362779546879L-5.368602241954022,414.80792070992607M869.368602241954,414.80792070992607L848.5397092980571,410.77427084513937L833.8947542373216,406.3692626632286L869.368602241954,399.3157650574915M-5.368602241954022,399.3157650574915L0.36246861208098835,397.59837811063494L12.301130483393592,402.7633087020056L28.585969951487414,407.61790359843025L34.892468770568485,410.1698464075315L64.25019619619951,407.95253444607056L88.31132204181756,404.7706272025054L120.05035551238637,403.1046284683259M16.291171398060726,417.4362779546879L34.892468770568485,410.1698464075315"></path><path class="constLines2" d="M49.75591121503089,301.95939242772846L39.17541054381053,307.91907825448527M38.93003151452626,296.82580363036425L47.09676398294795,309.85716558556"></path><path class="constLines1" d="M336.5479055887693,87.7674602327813L338.39651395547696,104.20596901976974L349.4600972627058,121.57037991543393L354.09920668055923,141.609474906721L368.35448432608644,153.32080497653487L370.62393200267627,159.08781476365203M368.6209285377273,120.59762210386567L349.4600972627058,121.57037991543393L328.80390699616663,128.25529858580802L304.6871983352969,137.10057364106325"></path><path class="constLines3" d="M256.22194737199203,97.25959748913036L268.6967132374216,95.15642552882024L273.84380961758166,94.28823296954182L275.5170521875631,90.30039565625097L271.07946472375545,91.82550454645501L268.6967132374216,95.15642552882024"></path><path class="constLines3" d="M802.2182874942384,207.05664921588112L808.8090653308091,215.65357306932873L824.3401756042138,236.4979478110371L832.3775239800352,239.30753468910297L826.0063059439783,242.13277775076708L824.3401756042138,236.4979478110371L812.6839964917033,227.16980204383063L808.8090653308091,215.65357306932873"></path><path class="constLines2" d="M373.2717725952029,189.10096519609291L359.99280682225276,187.39631724782151L362.0033435835888,197.20252187492912L369.0176328329609,196.27791163538168L373.2717725952029,189.10096519609291L404.5176756015263,173.29472456847287L409.7561277356642,186.49410489089277L395.19720816765005,201.67004025551833L387.4519171741049,215.43239953154952L382.74428423864464,224.03675823802186L388.4986370278525,234.20819693814914L413.36973960524523,244.29986792400473L438.8703167350683,243.93319017583255L451.856034879425,247.49310598280513M409.7561277356642,186.49410489089277L413.1542506513182,187.16120493755525M404.5176756015263,173.29472456847287L414.2655207033025,169.4855340375076"></path><path class="constLines3" d="M229.39146669467348,72.18881321524032L251.97991627920672,72.548285229671L252.41686756706966,75.03169063844413"></path><path class="constLines1" d="M686.3599897839701,210.6582963886632L683.8491182638107,196.62806895213245L684.9042011359304,191.15208706390956L695.8996624937124,177.8918148644906L714.1896135629277,172.96685204441084L712.3358875309955,165.3377537230012L706.7956097168127,162.39299395904894L707.4935111686141,156.2022513868292L712.1319526606746,134.64711260131662L728.6982635690431,131.30646273588857L741.3077806274755,135.99743220545804L749.9880675993923,149.79129009806977L741.4260371195381,157.08635780448458L738.2981705352561,164.61291846784357L739.9467387515278,172.78469269131114L750.6326343130766,202.79203016215385L760.2111643479789,198.9543755773895L760.4830124780314,195.82409798496087L770.4689501413651,184.07745908845118L782.1612853675799,182.2062777758141L791.9213853337176,177.99892270256964L790.6652323397649,166.15724801682947L794.341091117953,158.64407106063632L814.7628262735794,165.16129204190253L825.0937249958608,168.11902159932137L831.1589148232679,162.81574127104062L845.7498487301738,169.27766430062232"></path><path class="constLines3" d="M760.8982325360624,159.80118425713832L774.9450935202792,152.73515872784927L782.2096662209374,129.09922997953538"></path><path class="constLines1" d="M613.6113310222479,239.48253580257148L612.5588113767005,243.89882876023768L603.161602906204,253.5286094552921L585.8535355010803,263.3191914152011L576.6179218834525,272.8590589302414L583.1648841065127,282.0702347294674L588.358161813147,278.6675390862269L604.1935451069165,275.05574110048167L610.8596503017787,267.5616699036454L625.4226679060246,255.56816837972772L633.0569658411955,261.84112202371017M604.1935451069165,275.05574110048167L618.4265061508034,278.1687895074631"></path><path class="constLines3" d="M24.963701655836985,144.47728271538836L30.74175448994555,141.58285133926196L35.71190148886353,131.38527982203271L44.52899376936841,125.24727719870414L52.18661466014311,135.5487909935452L35.71190148886353,131.38527982203271M44.99883141354832,124.71193509903871L54.47093188967358,121.65612387355291L61.86878442418339,119.26155340069366L71.7488575771277,117.07501249502074"></path><path class="constLines2" d="M287.516976793572,242.46220955866426L292.154977743981,236.6585893115897L315.12818379814,225.7668655086153L332.41095419616596,221.38850514534144L341.6350098687821,223.49182595506147L352.3505548554088,227.13035925904478L350.5097207526253,232.56930565134206L347.1179156601197,241.235217224482M315.12818379814,225.7668655086153L311.74506814649317,216.3528451062976M332.41095419616596,221.38850514534144L324.8722597892645,206.99776881711298M324.64006389240274,186.99756686184892L325.23642305645376,202.74373042951117L324.8722597892645,206.99776881711298L311.74506814649317,216.3528451062976L295.9754960469072,210.6300535364481L301.2893655556725,192.91225139543866L304.74708838865104,186.69382381889548L303.38879037161456,181.53406412284042M270.830457054587,214.21203566359358L292.154977743981,236.6585893115897"></path><path class="constLines3" d="M781.0203316382547,199.70732589097236L817.0203972800182,174.6546680326012L821.7657779951594,175.6847223301377L825.0042707668929,179.6147073285089L830.9377682162933,193.1116430051178L840.5067783564099,197.92554838468362"></path><path class="constLines2" d="M626.2498689145032,336.00822583717996L627.7890816082174,337.4236616343386L638.0050678479331,336.214315299413L639.3289310473493,333.6449111904811L631.4073000169673,331.35442435658973L626.2498689145032,336.00822583717996L625.1450681216922,341.2920078439448L632.9577297989764,355.05249116313564L640.2585823730142,372.3071050246689L662.3396049760582,370.487062116776L682.9008415584924,367.35776903432725L700.8756462850736,373.95355483783055L722.5395562530273,379.4710441500732L713.9681424527895,391.93559129152436L761.4318840057608,395.9814588737578L775.25457574008,401.9273294163767L794.7888899353131,407.43104582776783L838.7533334872132,402.630292685329L869.368602241954,395.6198165381787M-5.368602241954022,395.6198165381787L18.215924723270916,385.96535693577107L33.996155607174046,375.4437427841895L54.071321251774066,368.2615900102569L82.78873050788235,368.391430463097L110.67835159550276,366.14706432497655L136.205918753885,361.74849237175374L158.5929531190294,355.55635558681513L160.6985255921178,328.10534311877154L164.76643217554812,304.40459164492006"></path><path class="constLines3" d="M8.315031475509784,204.95841183384334L-5.368602241954022,212.32829517163862M869.368602241954,212.32829517163862L856.6661270755241,219.22232645865418L851.5295650947448,200.42518674765236L854.9368388645646,198.12616780146803L857.7953417780083,192.2318877325269L847.3124528613405,181.55704702317445"></path><path class="constLines3" d="M87.36721352697731,156.72270004937997L76.94322284867178,163.13169593488533L63.07144957324476,172.90394410197203L48.085871046860916,155.1311709510738L63.13791252839076,158.06802374973435L87.36721352697731,156.72270004937997"></path><path class="constLines3" d="M425.611858988612,109.08868517675603L427.4445480334357,103.67282879478972L423.5769039000422,97.94472557348718L417.04824021778,96.52766634567531L418.2560015213886,87.31883474061271L426.60254513844217,88.60394618225226L423.5769039000422,97.94472557348718L422.8873914345054,102.66988583022054L425.611858988612,109.08868517675603M418.2560015213886,87.31883474061271L400.726440255013,82.95788053835253L398.1101854721027,78.30651854200642"></path><path class="constLines1" d="M556.9165798699831,370.4543168852642L542.0654007980834,361.14505084205695L522.0733561635543,358.9251968479808L492.92032518807184,363.944152299136L460.97063061476877,366.07789773941624L437.79063823214994,372.82161827865536L410.15469483410214,377.75992615671476L436.09099116012175,378.9882788499148L462.3277792188425,378.44204380191655L487.7038697544409,378.79629459149504L512.6786217871986,377.49478431076136L536.0082441236559,374.64537070410586L556.9165798699831,370.4543168852642M522.0733561635543,358.9251968479808L517.3644242582186,350.41704072821926L530.534063313973,338.14038081371166L540.4847993552014,340.1920697187179"></path><path class="constLines3" d="M504.28716932694556,322.50372955687004L494.0371006211607,329.27775908106173L474.02899962197466,331.77630617870966L489.49263254708205,322.89185052552864L504.28716932694556,322.50372955687004L521.3870936166018,311.907616641108"></path><path class="constLines3" d="M706.2554209454718,248.02106039557373L704.8600646170717,242.14896052446358L707.0070361991028,236.77020883441202L715.1865327090361,229.28644130700934L712.7055107701058,217.38926301648598L728.1407157504271,215.26440440112165L722.5938418140163,227.52298267417677L725.8030706276143,237.03999176973193L721.6359945775657,240.5936960254476M704.8239240538919,216.4824445387876L712.7055107701058,217.38926301648598L704.8908459873757,220.27947902818306"></path><path class="constLines2" d="M174.1636787112845,298.13861408362914L200.86230190363827,307.72678686085226L220.3711499527793,292.11533955230436L204.85304791674682,281.6231856893824L168.63072535755026,279.57247977242616L164.3105072991654,278.31448051804045M200.86230190363827,307.72678686085226L204.85304791674682,281.6231856893824"></path><path class="constLines3" d="M154.84208022962196,271.01664594094336L152.02927412750773,276.3795381437518L145.37929462087766,284.3779855695092L133.5967825326348,282.1886128920264L123.55116424107462,290.3002707377796L109.20759774108706,292.8160009132874L102.75005357285426,277.31451065821113L114.36301380986623,278.48984863104886L123.1537676170118,279.08538399312846L133.80736171460313,275.7459232061206L142.98300502003923,265.29163592323715L147.4004594830502,262.568687321791M133.5967825326348,282.1886128920264L133.80736171460313,275.7459232061206"></path><path class="constLines3" d="M526.939465010712,218.46931952922105L524.039412162186,230.06632852501102L539.2335024880879,249.7385502142355L537.5189066038538,277.3925831316903L526.8240621886586,291.8668720888787L528.3046449084827,306.6329419101373L531.9297980272568,311.8684301927365"></path><path class="constLines2" d="M326.89804743228973,163.69227625289062L332.06666172755274,164.5051398724333L329.4777687072238,167.73751877783053L326.89804743228973,163.69227625289062L325.73744525410007,158.79950177567093L314.94719497045253,155.22748949123215L316.15513317056036,159.90035643258088L326.89804743228973,163.69227625289062"></path><path class="constLines3" d="M855.0596393777596,242.06869746341226L858.3520196413481,235.90512091251884L855.2557690927746,230.19240409153886L846.3106038281215,230.41436964831308"></path><path class="constLines3" d="M110.13942556813424,129.82769632578285L89.89794162116732,147.73717434034626L82.7200277404038,132.52720691448923L100.70653568287184,117.04839208877533L108.55343134796806,123.0955373081573L110.13942556813424,129.82769632578285"></path><path class="constLines2" d="M688.3481578363917,303.64379515581066L665.9684527904949,318.71378708850943L664.5822008415255,283.7620648990989L685.152097744085,259.77674639106135L684.1742682524537,251.20449561648195M664.5822008415255,283.7620648990989L659.3783653165018,268.269632329555L656.3463659457286,252.99959535842464L648.5389491127437,257.30458590106804L641.1505985346032,260.878161737011"></path><path class="constLines3" d="M24.38017588007102,290.79520343997103L32.09322534849048,286.31769772049824L35.69934702903322,282.1956877410671L38.89404230847043,283.70085736100106L38.11869455200451,274.7258105987285L31.830972019345154,275.7273800613688L35.69934702903322,282.1956877410671"></path><path class="constLines3" d="M126.0426849900096,260.413354262414L121.00228810971441,251.17837358397824L114.20055866359382,253.493317144919L115.56776180813017,260.27670854181144L126.0426849900096,260.413354262414"></path><path class="constLines3" d="M28.567855820373893,245.11032109579287L20.137849007758007,213.9401374473418L29.75621569089475,206.7431898642459L28.567855820373893,245.11032109579287"></path><path class="constLines2" d="M208.76777101660733,195.7602046933461L240.04439557384904,198.04843532698808L244.9038562804018,200.131489467559L264.9094111154326,202.87894800069185L260.195409013796,225.93212874155805L244.66930675430453,244.57630797771375L231.94481987717813,256.3863498945797L229.14026617037908,254.28138041478513L213.2791222192791,244.53322157561368L198.56493262552743,226.3432748800531M260.195409013796,225.93212874155805L213.2791222192791,244.53322157561368L198.5867798927894,249.33503708577894L194.13191961848486,252.0014449483642L190.24622030033456,253.87308256673126L181.62153254898652,253.35936767816904M244.9038562804018,200.131489467559L198.56493262552743,226.3432748800531L175.35167360252893,222.50237888208616L163.2409928839042,221.17301605111695"></path><path class="constLines1" d="M633.1481114003168,239.13580176030862L621.2780137853649,229.18821651782036L620.5935718486062,234.5922302774464L634.0194939690733,241.91306208389807L646.110180824362,238.27281828502748L652.2401283857088,234.8616976282165L657.409175595473,217.30426968122404L650.5179401066205,198.1127765445133M670.7166966867703,202.82709780117807L669.2990298900495,200.01039387253616L661.8459863981093,197.2101644245045L658.642768249579,195.9949139109935L653.8600108334776,195.90903468617668L650.5179401066205,198.1127765445133L642.2294014896124,198.08064897425794L637.1038448315869,202.36999142126538L636.2895091672915,205.2990669295658M693.3080397030732,215.69094344096487L678.5269640901233,219.76489459930744L672.8616927286848,223.61931842093824L657.409175595473,217.30426968122404L647.9437413051298,222.05111571445752L652.2401283857088,234.8616976282165L676.1252746952297,229.41678633343201L694.3732497997408,235.912560179026M676.1252746952297,229.41678633343201L674.6997303852935,226.4436898916819L672.8616927286848,223.61931842093824"></path><path class="constLines2" d="M73.3912897876105,176.08667543757926L53.233422306298166,189.37779463732454L59.806901636023156,195.44579019379904L78.95360551339007,207.11512609141684L83.4861112385226,214.27875753544308L79.53802919464994,219.67272667423032L78.26220228448676,226.1077539103559L59.172627591021865,217.97439068797885L48.64501746053969,207.5712605290745L53.233422306298166,189.37779463732454L45.627677896114164,181.9226823001494"></path><path class="constLines1" d="M381.92781462096065,70.57139159003478L393.09482131188867,63.01151202417989L406.8323405433492,55.89890797356372L430.5544759896046,47.7069795045137L478.404583366117,49.551492021337424L500.07549567265335,52.42352122557128L519.3544839700985,56.371150887681864L532.7615899839589,49.68877293056991L549.6969899104823,43.565983886199945L571.1952358144399,38.25507573280561L598.0962503984343,34.1096854280583L572.9871825084274,25.916532619447366L530.8200329739067,19.277703126309802L464.8604045540602,15.937503349001673L392.9664983935503,17.597142390320357L348.2786522605112,17.717857154927117L308.02878588318003,19.778088410790218L282.63246491632225,21.3753629701271L262.1937884960699,25.327721447215595L246.98116733715074,29.72027326510863L226.47396874170647,39.26264080317469L241.73727665443246,46.8178975093403L253.0191439004705,54.778122326381094M392.9664983935503,17.597142390320357L409.85092833920544,24.88246717775729L419.66520419650413,32.39819832905977L426.0555964755774,40.02284783392L430.5544759896046,47.7069795045137L401.53186537662344,41.86091715065285L392.39218953747906,40.43354011562465L368.8891876456769,48.41311734411519L351.7939964357806,57.366630788454046L336.1529125529896,67.44239304679428"></path><path class="constLines1" d="M595.3409803316916,157.2703151353503L596.9364105401472,162.2020260744125L587.0134129715293,165.4902272886772L576.0623548403225,166.11715280240338L568.4707355414909,161.3813839427516L554.8811573782635,163.02999691494415L553.1726881683084,160.7247898819001L547.4566310618292,157.19971677231186L535.4522410868169,153.45731402802545L527.2298362182721,151.53968728417206L535.4878823400164,149.21297326110283L545.8840926185637,151.35071329891554L558.1974555074523,147.6037763598555L568.3064072218159,144.15924243472915L572.3710976565685,144.64132422708556L573.5474262829425,141.36255609486977L570.2802201717346,139.06303039694376L566.7293250845578,140.50085699790066L568.3064072218159,144.15924243472915M550.3388671978558,173.4727473624539L555.7090783193897,176.0590638981575L557.1170970794549,173.32726396738474L554.8811573782635,163.02999691494415M545.8840926185637,151.35071329891554L542.3647519137061,141.9794333826326L522.7266971023301,124.47018844122663"></path><path class="constLines2" d="M853.9757984441553,124.2973861796166L840.9560871419984,141.492396362985L826.3070788585967,140.1363900505639L834.9317289130647,151.96479685489817L851.8236381200577,159.83343788502717L840.9560871419984,141.492396362985L865.9408351292343,129.9448229201544L853.9757984441553,124.2973861796166"></path><path class="constLines3" d="M825.964844015386,257.5209050091646L808.8417813891379,241.73310409076294L796.2223851110086,241.08970685906272"></path><path class="constLines2" d="M587.866336903051,75.30844938123673L565.8823608215762,81.21235202796578L580.0540883536773,81.12261826031099L587.866336903051,75.30844938123673L602.0151652218691,70.55180105170098L633.3985453284959,77.93993619953997L660.9401268302196,85.01585082430867L684.5839626205146,96.31343362612816L684.174163974837,91.06700445464605L676.4218448902873,83.09880011327641L674.6581061640893,76.18726779774752L668.9595317193103,66.07303793624692L667.7066081261764,59.55920144267819L670.1046344805072,50.997594921584124L674.1774514017271,36.153926074537395L677.6031405345293,28.75189319485878L683.0888346380545,21.379326424500505L698.331731894335,15.79890481948624L725.9344765532995,10.618829890086005L733.4442215593347,6.935776972775329L750.1086694370986,3.3148304224298215L869.368602241954,2.774529500248377M-5.368602241954022,2.774529500248377L4.597665798129526,2.924032205094676L24.970111417197984,5.464302340176005L35.549302179608446,8.095433878750384L-5.368602241954022,11.212688437098848M869.368602241954,11.212688437098848L852.6171125309636,13.559632493136462L785.2971544350883,17.101589782897037L750.2393704639056,16.493717256858787L725.9344765532995,10.618829890086005M35.549302179608446,8.095433878750384L86.516827201784,8.721742860199726L127.47996609787344,10.628707787453408"></path><path class="constLines2" d="M53.1174392164728,84.73364863037196L36.02190608913162,88.84980583006849L35.66350188710595,95.99008915729195L38.09347203708961,97.08661020340361L54.36090451592435,98.4695771780982L69.63561941771832,104.34056847074115L84.196865352933,110.30681225086273L86.50178598235124,105.1987680021024L69.63561941771832,104.34056847074115L53.1174392164728,84.73364863037196"></path><path class="constLines2" d="M778.194842379517,263.3197056135626L765.8066737892009,283.91998456304844L743.7199932931543,297.19485982751087L739.58177854056,299.67053209759695L735.0069092752512,306.093728075045L729.8337647586122,311.0153324187813L735.6801458017922,316.2508701860512L759.485427814574,310.47158838014843L781.5179497358836,302.8457628296641L802.3948436926796,297.41849961815126M735.0069092752512,306.093728075045L738.088682489624,304.99279866710214L746.4342486464367,301.338016877911L743.7199932931543,297.19485982751087"></path><path class="constLines3" d="M781.5179497358836,302.8457628296641L777.8405343167819,323.5810756192095L772.4583242653191,327.48177434197805L756.6988781445436,336.31382647061207"></path><path class="constLines3" d="M827.8439049172308,214.63349427439715L820.3158367365929,212.87112319380535L826.8957109395537,209.5373431946157L836.0850493614726,209.10666532357584L827.8439049172308,214.63349427439715"></path><path class="constLines3" d="M276.3683405772007,129.19977681542497L278.30461515812624,125.09262127282422L282.07115822728457,118.81437320956233M274.79804794093053,128.57374224776734L278.30461515812624,125.09262127282422"></path><path class="constLines1" d="M141.89777117417867,199.36670043320188L146.66098023926344,194.72489736432803L157.91666636257332,193.42998415287488L167.50231688295486,187.10870601713407L179.86576500401603,192.37732876784222M113.1673656372476,178.17048035512312L121.53881224318195,173.36093694001383L151.05702282665743,172.54729434531077L161.02462279587007,178.87495481694793L167.50231688295486,187.10870601713407M111.04561836372147,162.54227898246214L124.5024587111501,152.03277483525557L147.13936620140294,142.96166869464994L155.78044517475297,150.95872793473296L159.40206691251467,156.43419816583767L159.6630267303999,162.09292525214272L161.04855555932954,173.39197442734184L161.02462279587007,178.87495481694793L157.91666636257332,193.42998415287488L158.37624042052727,201.52587900911954L146.66098023926344,194.72489736432803L151.05702282665743,172.54729434531077L155.52997499397804,168.52352760383644L161.04855555932954,173.39197442734184L170.47828533065763,164.99049039486235L171.30430034764305,161.71744990881356L174.97985722729265,155.87373427565262L176.99552897740838,152.8211077934904L181.86736082416417,151.38431487040305M170.47828533065763,164.99049039486235L173.2993977522936,168.28288719062687L169.8890855482611,171.3604720335317L161.04855555932954,173.39197442734184"></path><path class="constLines1" d="M174.79712616490997,268.103611942183L183.92126107287103,267.44809125122913L191.20765727211415,264.50856970702586M183.92126107287103,267.44809125122913L176.2593270538186,255.90659546835076L174.05519092436805,251.45934839987706L169.49329788486142,248.08443562357462L154.1609190901827,241.17650128815188L144.866104685271,240.6681866151398L134.19085001165826,239.7179427071487L131.63389155296636,232.007497720015L130.9506844167616,220.85690023245505L137.0577935701832,215.10104980450518L140.09630228772266,216.9895585284051L145.37796377212396,220.4606102093967"></path><path class="constLines3" d="M814.8436138315299,104.34628026516913L838.0729868375851,94.06197671403456L865.2664304817679,86.0249120462444L869.368602241954,87.1354330110398M-5.368602241954022,87.1354330110398L17.648283640933073,95.02504875961523L8.063052043966536,108.13221865538942"></path><path class="constLines3" d="M208.62592941422648,173.7388883880114L216.0825258837825,165.09370523351853L205.73828227064195,169.95202219824748L193.70502582442708,180.30910740015892L208.62592941422648,173.7388883880114"></path><path class="constLines3" d="M283.3230873809264,264.714876821037L294.6751883725533,264.57277728303586L289.69999276831345,261.59969982132793L282.38836657812226,258.7440167728987L283.3230873809264,264.714876821037L272.64855579551016,274.1082466630594L260.71154255487517,270.6627061128238L254.91611661486326,267.6367694372843L231.94481987717813,256.3863498945797"></path><path class="constLines3" d="M198.56493262552743,226.3432748800531L197.21673701171778,210.4590116315897L208.76777101660733,195.7602046933461L212.2367808236502,192.7324806252152L223.42928024166,179.82846092591686L238.54968288722807,156.48547837562185"></path><path class="constLines3" d="M621.0230501155728,387.8473551429179L651.8629654821231,386.08945973869197L679.5396375982837,382.32954881821297L657.437391773924,393.03181120382715L641.9286864724181,397.8613030779575L622.1743842154337,402.1320932915073L601.9824781025985,400.3188657770032"></path><path class="constLines1" d="M620.7772247871594,219.46041417636758L636.0019027705871,185.4597935046187L637.9138001084185,181.3516473287225L638.8842690513262,176.21730026511113L633.9379880279531,177.76643780100426L629.6310837082204,180.81285719199323L603.7197487126977,210.67323463919448M638.8842690513262,176.21730026511113L647.6455139081589,165.44693008571397L656.3432050343226,145.91129059585376L664.2890456491359,168.25371608017568M656.3432050343226,145.91129059585376L658.3986428136859,144.60991171866925L681.0123918764541,154.10817142634693"></path><path class="constLines3" d="M120.96843178533476,207.90657636479892L119.08766213644248,201.5285309330239L111.64364151610204,203.1144620124526"></path><path class="constLines3" d="M584.7278271517921,99.71310369819292L572.6333741422465,112.81154129263336L578.1372314388976,115.27898952966929L584.7278271517921,99.71310369819292"></path><path class="constLines2" d="M68.38311072504558,240.1200026099774L79.69107382841065,255.37144089198395L63.94882017100747,259.21900681804163L68.38311072504558,240.1200026099774"></path><path class="constLines3" d="M36.627031553773975,164.98912451831623L17.832111647351326,157.48302805351176L-3.550593384887918,172.19865143689597L0.9591225941105677,175.73792656515775L6.570890250865432,176.24054391542518L31.008577281434896,175.40985136701997L36.627031553773975,164.98912451831623"></path><path class="constLines1" d="M434.3256174228335,274.9946421450008L459.31341270688154,265.81338620812994L461.07009205750137,278.7712089622098L440.494706511725,284.51446800164683L434.3256174228335,274.9946421450008L420.0816138020026,272.911071722602L409.02445234154504,270.002381408319L392.4034087491914,275.51473395784546M440.494706511725,284.51446800164683L441.3785071309517,299.1748545061975L447.5111492065741,317.4762626468648L455.2762393933497,335.6076741222523L455.5561419345281,339.4053975284656M441.3785071309517,299.1748545061975L459.8693757672084,307.7842953495355L487.971594591482,311.01150924655M459.8693757672084,307.7842953495355L489.38170150704735,306.9944035960093M459.31341270688154,265.81338620812994L484.5346665750707,255.64032835177727L502.6687789312091,250.01133328120306L483.5759495202812,266.9240153889954L461.07009205750137,278.7712089622098M461.07009205750137,278.7712089622098L488.5222106961523,278.13123124307583L498.4419035879379,280.0998807178612L516.1266098670998,279.8742012917505M516.068717988425,282.6847650618047L498.4419035879379,280.0998807178612"></path><path class="constLines2" d="M427.35469323644804,209.61331380255825L421.0729510059352,207.03377971158537L416.27731993295043,219.6315740374512L423.93261210220555,220.87804886659296L427.35469323644804,209.61331380255825L435.2089467585148,200.32784902873658L446.11147245345006,196.91246717288644L455.81552179725327,196.14472233326666"></path><path class="constLines2" d="M829.251989312729,298.06279976357155L841.6243205457929,306.42935167097295L854.0488587912005,313.864507563679L869.368602241954,329.1419530344077M-5.368602241954022,329.1419530344077L-2.1161200084528105,331.897133240293L-5.368602241954022,333.5378487191931M869.368602241954,333.5378487191931L843.3351378831853,344.0663584917754L813.6545486153237,335.61243847028487L810.8935895967015,323.2250398289021L802.3948436926796,297.41849961815126"></path><path class="constLines1" d="M393.7676140688338,396.64593400871325L377.9675152270433,401.0685228899571L357.82120491550313,404.95679262798615L321.5451932280913,400.48864988211903L294.7803705510081,394.3424136221429L283.39200817558066,388.64007885767643L274.473180621639,382.71322982859203L256.5922905376527,375.62473941534324L242.48644276789162,367.8536379702106L214.2003411611206,358.93304399375427L225.61259020669183,343.73297661703685L234.13972176561697,328.19513160663723L233.29713430531896,311.8414290477409M322.77038311700244,357.8546381099834L309.57176189071873,364.50356504825487L294.00238899335915,370.52620609645476L274.473180621639,382.71322982859203M242.48644276789162,367.8536379702106L252.5308075100602,359.58266432060566L260.734786638425,351.0505082214926L262.9209031733372,333.9252491685719L256.154316389857,307.28018348653507"></path><path class="constLines3" d="M856.3011282430027,281.04568004231373L848.617383457042,275.3190018896685L850.7676794441506,268.2723915137867L842.996954600228,259.3041699608472L848.1396235377256,255.18444640625003L850.7676794441506,268.2723915137867L856.3011282430027,281.04568004231373"></path><path class="constLines3" d="M285.1210018939033,143.33176110801082L295.108194516082,137.08095766809782L295.7585837279911,123.32072186350098L308.01948898465145,121.00450738112929L310.8447134322347,113.41716474916642"></path></g><g id="mapBorder" inkscape:groupmode="layer" inkscape:label="mapBorder"><path class="mapBorder" d="M869.368602241954,434.68429869115147L869.368602241954,380.0132234109072L869.368602241954,325.34214813066296L869.368602241954,270.6710728504187L869.368602241954,215.99999757017443L869.368602241954,161.32892350484298L869.368602241954,106.65784943951148L869.368602241954,51.98677537418004L869.368602241954,-2.6842986911514686L863.2940383219269,-2.6842986911514686L857.2194744018998,-2.6842986911514686L851.1449104818726,-2.6842986911514686L845.0703465618456,-2.6842986911514686L838.9957826418183,-2.6842986911514686L832.9212187217911,-2.6842986911514686L826.8466548017641,-2.6842986911514686L820.7720908817369,-2.6842986911514686L814.6975269617097,-2.6842986911514686L808.6229630416826,-2.6842986911514686L802.5483991216555,-2.6842986911514686L796.4738352016284,-2.6842986911514686L790.3992712816012,-2.6842986911514686L784.3247073615742,-2.6842986911514686L778.2501434415469,-2.6842986911514686L772.1755795215197,-2.6842986911514686L766.1010156014927,-2.6842986911514686L760.0264516814655,-2.6842986911514686L753.9518877614385,-2.6842986911514686L747.8773238414112,-2.6842986911514686L741.8027599213841,-2.6842986911514686L735.728196001357,-2.6842986911514686L729.6536320813299,-2.6842986911514686L723.5790681613026,-2.6842986911514686L717.5045042412755,-2.6842986911514686L711.4299403212484,-2.6842986911514686L705.3553764012213,-2.6842986911514686L699.2808124811941,-2.6842986911514686L693.2062485611671,-2.6842986911514686L687.1316846411398,-2.6842986911514686L681.0571207211127,-2.6842986911514686L674.9825568010856,-2.6842986911514686L668.9079928810584,-2.6842986911514686L662.8334289610314,-2.6842986911514686L656.7588650410041,-2.6842986911514686L650.684301120977,-2.6842986911514686L644.6097372009499,-2.6842986911514686L638.5351732809228,-2.6842986911514686L632.4606093608955,-2.6842986911514686L626.3860454408684,-2.6842986911514686L620.3114815208413,-2.6842986911514686L614.2369176008142,-2.6842986911514686L608.1623536807871,-2.6842986911514686L602.0877897607598,-2.6842986911514686L596.0132258407327,-2.6842986911514686L589.9386619207056,-2.6842986911514686L583.8640980006785,-2.6842986911514686L577.7895340806513,-2.6842986911514686L571.7149701606243,-2.6842986911514686L565.640406240597,-2.6842986911514686L559.5658423205699,-2.6842986911514686L553.4912784005428,-2.6842986911514686L547.4167144805157,-2.6842986911514686L541.3421505604886,-2.6842986911514686L535.2675866404613,-2.6842986911514686L529.1930227204342,-2.6842986911514686L523.1184588004071,-2.6842986911514686L517.04389488038,-2.6842986911514686L510.9693309603528,-2.6842986911514686L504.89476704032563,-2.6842986911514686L498.8202031202985,-2.6842986911514686L492.7456392002714,-2.6842986911514686L486.6710752802443,-2.6842986911514686L480.5965113602171,-2.6842986911514686L474.52194744019,-2.6842986911514686L468.4473835201628,-2.6842986911514686L462.3728196001357,-2.6842986911514686L456.2982556801086,-2.6842986911514686L450.2236917600814,-2.6842986911514686L444.1491278400543,-2.6842986911514686L438.0745639200271,-2.6842986911514686L432,-2.6842986911514686L425.9254360799729,-2.6842986911514686L419.8508721599457,-2.6842986911514686L413.7763082399186,-2.6842986911514686L407.7017443198914,-2.6842986911514686L401.6271803998643,-2.6842986911514686L395.5526164798372,-2.6842986911514686L389.47805255981,-2.6842986911514686L383.4034886397829,-2.6842986911514686L377.3289247197557,-2.6842986911514686L371.2543607997286,-2.6842986911514686L365.1797968797015,-2.6842986911514686L359.10523295967437,-2.6842986911514686L353.0306690396472,-2.6842986911514686L346.9561051196201,-2.6842986911514686L340.8815411995929,-2.6842986911514686L334.8069772795658,-2.6842986911514686L328.7324133595386,-2.6842986911514686L322.6578494395115,-2.6842986911514686L316.5832855194843,-2.6842986911514686L310.5087215994572,-2.6842986911514686L304.4341576794301,-2.6842986911514686L298.35959375940297,-2.6842986911514686L292.2850298393758,-2.6842986911514686L286.2104659193487,-2.6842986911514686L280.1359019993215,-2.6842986911514686L274.0613380792944,-2.6842986911514686L267.98677415926727,-2.6842986911514686L261.91221023924015,-2.6842986911514686L255.83764631921295,-2.6842986911514686L249.7630823991858,-2.6842986911514686L243.6885184791587,-2.6842986911514686L237.61395455913154,-2.6842986911514686L231.53939063910443,-2.6842986911514686L225.46482671907725,-2.6842986911514686L219.39026279905013,-2.6842986911514686L213.315698879023,-2.6842986911514686L207.24113495899587,-2.6842986911514686L201.1665710389687,-2.6842986911514686L195.09200711894158,-2.6842986911514686L189.01744319891444,-2.6842986911514686L182.9428792788873,-2.6842986911514686L176.86831535886014,-2.6842986911514686L170.793751438833,-2.6842986911514686L164.71918751880588,-2.6842986911514686L158.64462359877876,-2.6842986911514686L152.5700596787516,-2.6842986911514686L146.49549575872447,-2.6842986911514686L140.42093183869736,-2.6842986911514686L134.34636791867013,-2.6842986911514686L128.271803998643,-2.6842986911514686L122.19724007861589,-2.6842986911514686L116.12267615858877,-2.6842986911514686L110.0481122385616,-2.6842986911514686L103.97354831853448,-2.6842986911514686L97.89898439850737,-2.6842986911514686L91.82442047848025,-2.6842986911514686L85.74985655845308,-2.6842986911514686L79.6752926384259,-2.6842986911514686L73.60072871839878,-2.6842986911514686L67.52616479837161,-2.6842986911514686L61.45160087834449,-2.6842986911514686L55.377036958317376,-2.6842986911514686L49.30247303829026,-2.6842986911514686L43.227909118263085,-2.6842986911514686L37.15334519823597,-2.6842986911514686L31.07878127820885,-2.6842986911514686L25.004217358181677,-2.6842986911514686L18.929653438154503,-2.6842986911514686L12.855089518127386,-2.6842986911514686L6.780525598100269,-2.6842986911514686L0.7059616780730948,-2.6842986911514686L-5.368602241954022,-2.6842986911514686L-5.368602241954022,51.98677537418004L-5.368602241954022,106.65784943951148L-5.368602241954022,161.32892350484298L-5.368602241954022,215.99999757017443L-5.368602241954022,270.6710728504187L-5.368602241954022,325.34214813066296L-5.368602241954022,380.0132234109072L-5.368602241954022,434.68429869115147L0.7059616780730948,434.68429869115147L6.780525598100269,434.68429869115147L12.855089518127386,434.68429869115147L18.929653438154503,434.68429869115147L25.004217358181677,434.68429869115147L31.07878127820885,434.68429869115147L37.15334519823597,434.68429869115147L43.227909118263085,434.68429869115147L49.30247303829026,434.68429869115147L55.377036958317376,434.68429869115147L61.45160087834449,434.68429869115147L67.52616479837161,434.68429869115147L73.60072871839878,434.68429869115147L79.6752926384259,434.68429869115147L85.74985655845308,434.68429869115147L91.82442047848025,434.68429869115147L97.89898439850737,434.68429869115147L103.97354831853448,434.68429869115147L110.0481122385616,434.68429869115147L116.12267615858877,434.68429869115147L122.19724007861589,434.68429869115147L128.271803998643,434.68429869115147L134.34636791867013,434.68429869115147L140.42093183869736,434.68429869115147L146.49549575872447,434.68429869115147L152.5700596787516,434.68429869115147L158.64462359877876,434.68429869115147L164.71918751880588,434.68429869115147L170.793751438833,434.68429869115147L176.86831535886014,434.68429869115147L182.9428792788873,434.68429869115147L189.01744319891444,434.68429869115147L195.09200711894158,434.68429869115147L201.1665710389687,434.68429869115147L207.24113495899587,434.68429869115147L213.315698879023,434.68429869115147L219.39026279905013,434.68429869115147L225.46482671907725,434.68429869115147L231.53939063910443,434.68429869115147L237.61395455913154,434.68429869115147L243.6885184791587,434.68429869115147L249.7630823991858,434.68429869115147L255.83764631921295,434.68429869115147L261.91221023924015,434.68429869115147L267.98677415926727,434.68429869115147L274.0613380792944,434.68429869115147L280.1359019993215,434.68429869115147L286.2104659193487,434.68429869115147L292.2850298393758,434.68429869115147L298.35959375940297,434.68429869115147L304.4341576794301,434.68429869115147L310.5087215994572,434.68429869115147L316.5832855194843,434.68429869115147L322.6578494395115,434.68429869115147L328.7324133595386,434.68429869115147L334.8069772795658,434.68429869115147L340.8815411995929,434.68429869115147L346.9561051196201,434.68429869115147L353.0306690396472,434.68429869115147L359.10523295967437,434.68429869115147L365.1797968797015,434.68429869115147L371.2543607997286,434.68429869115147L377.3289247197557,434.68429869115147L383.4034886397829,434.68429869115147L389.47805255981,434.68429869115147L395.5526164798372,434.68429869115147L401.6271803998643,434.68429869115147L407.7017443198914,434.68429869115147L413.7763082399186,434.68429869115147L419.8508721599457,434.68429869115147L425.9254360799729,434.68429869115147L432,434.68429869115147L438.0745639200271,434.68429869115147L444.1491278400543,434.68429869115147L450.2236917600814,434.68429869115147L456.2982556801086,434.68429869115147L462.3728196001357,434.68429869115147L468.4473835201628,434.68429869115147L474.52194744019,434.68429869115147L480.5965113602171,434.68429869115147L486.6710752802443,434.68429869115147L492.7456392002714,434.68429869115147L498.8202031202985,434.68429869115147L504.89476704032563,434.68429869115147L510.9693309603528,434.68429869115147L517.04389488038,434.68429869115147L523.1184588004071,434.68429869115147L529.1930227204342,434.68429869115147L535.2675866404613,434.68429869115147L541.3421505604886,434.68429869115147L547.4167144805157,434.68429869115147L553.4912784005428,434.68429869115147L559.5658423205699,434.68429869115147L565.640406240597,434.68429869115147L571.7149701606243,434.68429869115147L577.7895340806513,434.68429869115147L583.8640980006785,434.68429869115147L589.9386619207056,434.68429869115147L596.0132258407327,434.68429869115147L602.0877897607598,434.68429869115147L608.1623536807871,434.68429869115147L614.2369176008142,434.68429869115147L620.3114815208413,434.68429869115147L626.3860454408684,434.68429869115147L632.4606093608955,434.68429869115147L638.5351732809228,434.68429869115147L644.6097372009499,434.68429869115147L650.684301120977,434.68429869115147L656.7588650410041,434.68429869115147L662.8334289610314,434.68429869115147L668.9079928810584,434.68429869115147L674.9825568010856,434.68429869115147L681.0571207211127,434.68429869115147L687.1316846411398,434.68429869115147L693.2062485611671,434.68429869115147L699.2808124811941,434.68429869115147L705.3553764012213,434.68429869115147L711.4299403212484,434.68429869115147L717.5045042412755,434.68429869115147L723.5790681613026,434.68429869115147L729.6536320813299,434.68429869115147L735.728196001357,434.68429869115147L741.8027599213841,434.68429869115147L747.8773238414112,434.68429869115147L753.9518877614385,434.68429869115147L760.0264516814655,434.68429869115147L766.1010156014927,434.68429869115147L772.1755795215197,434.68429869115147L778.2501434415469,434.68429869115147L784.3247073615742,434.68429869115147L790.3992712816012,434.68429869115147L796.4738352016284,434.68429869115147L802.5483991216555,434.68429869115147L808.6229630416826,434.68429869115147L814.6975269617097,434.68429869115147L820.7720908817369,434.68429869115147L826.8466548017641,434.68429869115147L832.9212187217911,434.68429869115147L838.9957826418183,434.68429869115147L845.0703465618456,434.68429869115147L851.1449104818726,434.68429869115147L857.2194744018998,434.68429869115147L863.2940383219269,434.68429869115147Z"></path></g><g id="stars" inkscape:groupmode="layer" inkscape:label="stars"></g><g id="dsos" inkscape:groupmode="layer" inkscape:label="dsos"></g><g id="planets" inkscape:groupmode="layer" inkscape:label="planets"></g><g id="gridvaluesLon" inkscape:groupmode="layer" inkscape:label="gridvaluesLon"></g><g id="gridvaluesLat" inkscape:groupmode="layer" inkscape:label="gridvaluesLat"></g><g id="constNames" inkscape:groupmode="layer" inkscape:label="constNames"><text class="constNames1" transform="translate(486.9847041322612,86.22152727374473)">And</text><text class="constNames3" transform="translate(838.1076588048285,359.2899340841882)">Ant</text><text class="constNames3" transform="translate(54.55855851402481,247.07293509105813)">Aps</text><text class="constNames2" transform="translate(125.51542693279458,40.32344570495826)">Aqr</text><text class="constNames1" transform="translate(247.17880444823874,138.9139660655118)">Aql</text><text class="constNames3" transform="translate(100.4580762540781,234.00312082437833)">Ara</text><text class="constNames1" transform="translate(619.7843485576527,123.9193653822934)">Ari</text><text class="constNames1" transform="translate(583.2394960954754,209.8417627092701)">Aur</text><text class="constNames1" transform="translate(342.31310838233765,274.02585745627255)">Boo</text><text class="constNames3" transform="translate(776.1573613298249,217.05982574777101)">Cae</text><text class="constNames2" transform="translate(498.34254805509687,201.34264559782576)">Cam</text><text class="constNames2" transform="translate(570.3292164287861,305.47570571641586)">Cnc</text><text class="constNames2" transform="translate(406.4438732819783,302.18853817484614)">CVn</text><text class="constNames1" transform="translate(733.7180750517532,262.56075430597724)">CMa</text><text class="constNames2" transform="translate(648.9384789366374,285.11903554553203)">CMi</text><text class="constNames2" transform="translate(134.38779636227747,107.31731402466637)">Cap</text><text class="constNames1" transform="translate(863.3859939300801,286.4567066950347)">Car</text><text class="constNames1" transform="translate(462.11082573757204,113.78212512295808)">Cas</text><text class="constNames1" transform="translate(101.27481395032964,333.19701999018554)">Cen</text><text class="constNames2" transform="translate(443.6321362698212,152.33796935612776)">Cep</text><text class="constNames1" transform="translate(714.5209609063155,95.87976322276437)">Cet</text><text class="constNames3" transform="translate(24.534517229433447,255.28830623404124)">Cha</text><text class="constNames3" transform="translate(61.36570209395654,270.87197053490235)">Cir</text><text class="constNames3" transform="translate(766.5168738398938,238.30852217556026)">Col</text><text class="constNames3" transform="translate(368.43656033105856,339.4764584995203)">Com</text><text class="constNames3" transform="translate(129.8690758953739,187.9691269288402)">CrA</text><text class="constNames2" transform="translate(322.41815700383324,249.10195266625837)">CrB</text><text class="constNames3" transform="translate(141.72638735457502,387.05951270504937)">Crv</text><text class="constNames3" transform="translate(96.51493312323288,413.45085960744274)">Crt</text><text class="constNames2" transform="translate(48.58935094853064,296.12382388867775)">Cru</text><text class="constNames1" transform="translate(376.930293590421,131.06183656992187)">Cyg</text><text class="constNames3" transform="translate(236.44939771785306,95.9844276352628)">Del</text><text class="constNames3" transform="translate(828.4776814981321,229.17861941785503)">Dor</text><text class="constNames2" transform="translate(390.88065618441317,190.06027800156636)">Dra</text><text class="constNames3" transform="translate(259.61743666020067,68.86788806349756)">Equ</text><text class="constNames1" transform="translate(729.9070754997919,159.90253185525995)">Eri</text><text class="constNames3" transform="translate(766.3583680376897,144.32329423607433)">For</text><text class="constNames1" transform="translate(602.6778286807833,267.9512212608522)">Gem</text><text class="constNames3" transform="translate(35.89612420027879,118.0984793126477)">Gru</text><text class="constNames2" transform="translate(322.0361114242877,217.8830074811445)">Her</text><text class="constNames3" transform="translate(810.924532001974,189.47866865654152)">Hor</text><text class="constNames2" transform="translate(767.7658307779401,376.5872713106334)">Hya</text><text class="constNames3" transform="translate(861.2498584961697,203.33181366214984)">Hyi</text><text class="constNames3" transform="translate(62.670833428554545,163.7551984023706)">Ind</text><text class="constNames3" transform="translate(434.1081406278005,94.24901859739805)">Lac</text><text class="constNames1" transform="translate(516.2772248451571,373.6636567216059)">Leo</text><text class="constNames3" transform="translate(495.6913688593535,338.6756651160775)">LMi</text><text class="constNames3" transform="translate(731.6938039156905,242.77388816231553)">Lep</text><text class="constNames2" transform="translate(173.6775945146219,287.0944060500259)">Lib</text><text class="constNames3" transform="translate(148.00441481689273,288.30336425889146)">Lup</text><text class="constNames3" transform="translate(530.5588830484689,262.9662890966836)">Lyn</text><text class="constNames2" transform="translate(306.7772032380404,166.52076464067395)">Lyr</text><text class="constNames3" transform="translate(867.3253938044087,235.4825372829595)">Men</text><text class="constNames3" transform="translate(96.45236061091163,129.77626449031692)">Mic</text><text class="constNames2" transform="translate(677.8631161323021,301.7089852995648)">Mon</text><text class="constNames3" transform="translate(35.928144223739764,271.79715593431405)">Mus</text><text class="constNames3" transform="translate(109.16944608768364,255.8656991532321)">Nor</text><text class="constNames3" transform="translate(35.64765677901801,218.88403894386786)">Oct</text><text class="constNames2" transform="translate(243.62348829286432,219.54165372864023)">Oph</text><text class="constNames1" transform="translate(640.4922504929363,221.47946589673882)">Ori</text><text class="constNames2" transform="translate(71.2787217773415,193.23498554321355)">Pav</text><text class="constNames1" transform="translate(309.54923270181183,39.065920155106966)">Peg</text><text class="constNames1" transform="translate(564.6673625724262,179.01019013041264)">Per</text><text class="constNames2" transform="translate(835.3773024674316,133.7861661871899)">Phe</text><text class="constNames3" transform="translate(793.744347376042,234.3631470217238)">Pic</text><text class="constNames2" transform="translate(632.2990921760321,70.01111700536978)">Psc</text><text class="constNames2" transform="translate(73.4878096463425,94.81103668271703)">PsA</text><text class="constNames2" transform="translate(790.2521353093398,281.2878454001033)">Pup</text><text class="constNames3" transform="translate(742.8224664663478,338.12658876027575)">Pyx</text><text class="constNames3" transform="translate(827.9379228592193,204.65158706324272)">Ret</text><text class="constNames3" transform="translate(275.7822337807761,138.48583818639412)">Sge</text><text class="constNames1" transform="translate(135.38179990213018,163.50608106902334)">Sgr</text><text class="constNames1" transform="translate(145.0695945642134,248.26029173017997)">Sco</text><text class="constNames3" transform="translate(856.4121613476133,99.74756433320687)">Scl</text><text class="constNames3" transform="translate(196.30009897993,168.37837796098353)">Sct</text><text class="constNames3" transform="translate(258.8036347969797,279.7924540542205)">Ser</text><text class="constNames3" transform="translate(236.51130680837338,165.39224957015932)">Ser</text><text class="constNames3" transform="translate(667.4090405818797,404.81003124952747)">Sex</text><text class="constNames1" transform="translate(641.6417559013317,150.64460768903092)">Tau</text><text class="constNames3" transform="translate(100.10662837230541,206.4938625485741)">Tel</text><text class="constNames3" transform="translate(568.7831729290216,102.10754020032357)">Tri</text><text class="constNames2" transform="translate(70.15690193826714,251.52613455015285)">TrA</text><text class="constNames3" transform="translate(19.209458295918978,171.52020458668926)">Tuc</text><text class="constNames1" transform="translate(464.0510950867565,298.9867716824821)">UMa</text><text class="constNames2" transform="translate(410.0289942904549,227.19586719265428)">UMi</text><text class="constNames2" transform="translate(827.9308078316119,326.2186394539357)">Vel</text><text class="constNames1" transform="translate(248.9512125232424,362.54618744392303)">Vir</text><text class="constNames3" transform="translate(855.14648577832,255.15635599808317)">Vol</text><text class="constNames3" transform="translate(285.39714204153375,128.70139946690261)">Vul</text></g><g id="starDesignations" inkscape:groupmode="layer" inkscape:label="starDesignations"></g><g id="starNames" inkscape:groupmode="layer" inkscape:label="starNames"></g><g id="dsoNames" inkscape:groupmode="layer" inkscape:label="dsoNames"></g><g id="planetNames" inkscape:groupmode="layer" inkscape:label="planetNames"></g><g id="horizon" inkscape:groupmode="layer" inkscape:label="horizon"></g><g id="daylight" inkscape:groupmode="layer" inkscape:label="daylight"></g></svg>